<svg xmlns="http://www.w3.org/2000/svg" width="770" height="816" viewBox="0 0 770 816">
<rect x="0" y="0" width="770" height="816" fill="rgb(255,255,255)"/>
<rect x="180" y="30" width="110" height="46" fill="rgb(224,224,255)"/>
<rect x="296" y="30" width="110" height="46" fill="rgb(163,163,255)"/>
<rect x="412" y="30" width="110" height="46" fill="rgb(0,0,255)"/>
<rect x="528" y="30" width="110" height="46" fill="rgb(77,77,201)"/>
<rect x="644" y="30" width="110" height="46" fill="rgb(0,0,102)"/>
<path d="M18.12 56.06L18.09 56.06L18.09 57L17.05 57L17.05 47.38L18.09 47.38L18.09 51.64L18.12 51.64Q18.89 50.35 20.37 50.35Q21.62 50.35 22.32 51.22Q23.03 52.09 23.03 53.56Q23.03 55.19 22.24 56.17Q21.45 57.15 20.07 57.15Q18.78 57.15 18.12 56.06ZM18.09 53.44L18.09 54.35Q18.09 55.15 18.62 55.72Q19.14 56.28 19.95 56.28Q20.89 56.28 21.43 55.55Q21.97 54.83 21.97 53.54Q21.97 52.46 21.47 51.84Q20.96 51.22 20.11 51.22Q19.2 51.22 18.65 51.86Q18.09 52.49 18.09 53.44ZM25.74 57L24.69 57L24.69 47.38L25.74 47.38L25.74 57ZM33.11 57L32.07 57L32.07 55.97L32.04 55.97Q31.39 57.15 30.03 57.15Q27.71 57.15 27.71 54.38L27.71 50.5L28.75 50.5L28.75 54.22Q28.75 56.28 30.32 56.28Q31.08 56.28 31.57 55.72Q32.07 55.15 32.07 54.25L32.07 50.5L33.11 50.5L33.11 57ZM40.43 54.01L35.84 54.01Q35.87 55.1 36.43 55.69Q36.99 56.28 37.96 56.28Q39.06 56.28 39.98 55.55L39.98 56.53Q39.13 57.15 37.72 57.15Q36.34 57.15 35.55 56.27Q34.77 55.38 34.77 53.78Q34.77 52.26 35.62 51.31Q36.49 50.35 37.76 50.35Q39.04 50.35 39.74 51.17Q40.43 52 40.43 53.46L40.43 54.01ZM39.37 53.13Q39.36 52.23 38.93 51.73Q38.5 51.22 37.74 51.22Q37.01 51.22 36.49 51.75Q35.98 52.28 35.86 53.13L39.37 53.13ZM48.74 56.77L48.74 55.65Q49.59 56.28 50.61 56.28Q51.98 56.28 51.98 55.36Q51.98 55.1 51.86 54.92Q51.75 54.74 51.54 54.6Q51.35 54.46 51.07 54.35Q50.81 54.24 50.5 54.12Q50.06 53.95 49.73 53.78Q49.41 53.6 49.19 53.38Q48.97 53.16 48.86 52.88Q48.75 52.6 48.75 52.23Q48.75 51.77 48.96 51.42Q49.17 51.06 49.52 50.83Q49.87 50.59 50.31 50.47Q50.76 50.35 51.24 50.35Q52.08 50.35 52.75 50.64L52.75 51.69Q52.03 51.22 51.1 51.22Q50.81 51.22 50.57 51.29Q50.34 51.36 50.17 51.48Q50 51.6 49.91 51.77Q49.82 51.93 49.82 52.14Q49.82 52.39 49.91 52.56Q50 52.73 50.18 52.87Q50.36 53 50.61 53.11Q50.86 53.22 51.19 53.34Q51.62 53.51 51.96 53.69Q52.31 53.86 52.55 54.08Q52.79 54.3 52.92 54.58Q53.05 54.87 53.05 55.26Q53.05 55.74 52.83 56.1Q52.62 56.45 52.27 56.69Q51.91 56.92 51.45 57.04Q50.99 57.15 50.48 57.15Q49.47 57.15 48.74 56.77ZM61.31 57L60.04 57L58.52 54.45Q58.31 54.09 58.11 53.85Q57.92 53.59 57.71 53.43Q57.5 53.27 57.26 53.2Q57.03 53.13 56.73 53.13L55.85 53.13L55.85 57L54.79 57L54.79 47.9L57.5 47.9Q58.1 47.9 58.6 48.05Q59.11 48.2 59.48 48.5Q59.85 48.81 60.06 49.26Q60.27 49.71 60.27 50.32Q60.27 50.8 60.13 51.2Q59.99 51.59 59.72 51.9Q59.46 52.21 59.08 52.44Q58.72 52.65 58.25 52.77L58.25 52.8Q58.48 52.9 58.65 53.03Q58.82 53.16 58.97 53.34Q59.12 53.52 59.27 53.74Q59.42 53.97 59.6 54.26L61.31 57ZM55.85 48.86L55.85 52.16L57.3 52.16Q57.7 52.16 58.04 52.04Q58.38 51.92 58.63 51.7Q58.88 51.47 59.01 51.15Q59.15 50.82 59.15 50.41Q59.15 49.68 58.68 49.27Q58.21 48.86 57.31 48.86L55.85 48.86ZM69.19 56.38Q67.81 57.15 66.14 57.15Q64.19 57.15 62.98 55.9Q61.78 54.64 61.78 52.57Q61.78 50.46 63.12 49.1Q64.46 47.75 66.51 47.75Q67.99 47.75 69 48.23L69 49.41Q67.9 48.71 66.39 48.71Q64.86 48.71 63.88 49.76Q62.9 50.82 62.9 52.49Q62.9 54.22 63.81 55.21Q64.72 56.19 66.27 56.19Q67.34 56.19 68.12 55.77L68.12 53.22L66.13 53.22L66.13 52.25L69.19 52.25L69.19 56.38ZM71.3 57L71.3 47.9L73.89 47.9Q75.07 47.9 75.77 48.48Q76.46 49.05 76.46 49.98Q76.46 50.75 76.04 51.33Q75.62 51.9 74.88 52.14L74.88 52.16Q75.8 52.27 76.36 52.86Q76.91 53.45 76.91 54.38Q76.91 55.55 76.07 56.28Q75.23 57 73.96 57L71.3 57ZM72.37 48.86L72.37 51.8L73.46 51.8Q74.34 51.8 74.84 51.38Q75.34 50.96 75.34 50.19Q75.34 48.86 73.59 48.86L72.37 48.86ZM72.37 52.76L72.37 56.04L73.82 56.04Q74.76 56.04 75.27 55.59Q75.79 55.15 75.79 54.37Q75.79 52.76 73.59 52.76L72.37 52.76Z" fill="rgb(0,0,0)"/>
<rect x="180" y="84" width="110" height="46" fill="rgb(216,229,255)"/>
<rect x="296" y="84" width="110" height="46" fill="rgb(147,183,255)"/>
<rect x="412" y="84" width="110" height="46" fill="rgb(68,124,255)"/>
<rect x="528" y="84" width="110" height="46" fill="rgb(0,50,235)"/>
<rect x="644" y="84" width="110" height="46" fill="rgb(0,23,133)"/>
<path d="M18.12 110.06L18.09 110.06L18.09 111L17.05 111L17.05 101.38L18.09 101.38L18.09 105.64L18.12 105.64Q18.89 104.35 20.37 104.35Q21.62 104.35 22.32 105.22Q23.03 106.09 23.03 107.56Q23.03 109.19 22.24 110.17Q21.45 111.15 20.07 111.15Q18.78 111.15 18.12 110.06ZM18.09 107.44L18.09 108.35Q18.09 109.15 18.62 109.72Q19.14 110.28 19.95 110.28Q20.89 110.28 21.43 109.55Q21.97 108.83 21.97 107.54Q21.97 106.46 21.47 105.84Q20.96 105.22 20.11 105.22Q19.2 105.22 18.65 105.86Q18.09 106.49 18.09 107.44ZM25.74 111L24.69 111L24.69 101.38L25.74 101.38L25.74 111ZM33.11 111L32.07 111L32.07 109.97L32.04 109.97Q31.39 111.15 30.03 111.15Q27.71 111.15 27.71 108.38L27.71 104.5L28.75 104.5L28.75 108.22Q28.75 110.28 30.32 110.28Q31.08 110.28 31.57 109.72Q32.07 109.15 32.07 108.25L32.07 104.5L33.11 104.5L33.11 111ZM40.43 108.01L35.84 108.01Q35.87 109.1 36.43 109.69Q36.99 110.28 37.96 110.28Q39.06 110.28 39.98 109.55L39.98 110.53Q39.13 111.15 37.72 111.15Q36.34 111.15 35.55 110.27Q34.77 109.38 34.77 107.78Q34.77 106.26 35.62 105.31Q36.49 104.35 37.76 104.35Q39.04 104.35 39.74 105.17Q40.43 106 40.43 107.46L40.43 108.01ZM39.37 107.13Q39.36 106.23 38.93 105.73Q38.5 105.22 37.74 105.22Q37.01 105.22 36.49 105.75Q35.98 106.28 35.86 107.13L39.37 107.13ZM52.94 111.15Q51 111.15 49.84 109.88Q48.67 108.6 48.67 106.56Q48.67 104.36 49.86 103.05Q51.05 101.75 53.09 101.75Q54.98 101.75 56.13 103.01Q57.28 104.28 57.28 106.33Q57.28 108.56 56.1 109.86Q54.92 111.15 52.94 111.15ZM53.02 102.71Q51.58 102.71 50.69 103.74Q49.79 104.78 49.79 106.46Q49.79 108.14 50.66 109.17Q51.54 110.19 52.94 110.19Q54.44 110.19 55.3 109.22Q56.17 108.24 56.17 106.48Q56.17 104.68 55.33 103.69Q54.49 102.71 53.02 102.71ZM65.4 111L63.92 111L60.4 106.84Q60.2 106.6 60.16 106.52L60.13 106.52L60.13 111L59.07 111L59.07 101.9L60.13 101.9L60.13 106.18L60.16 106.18Q60.25 106.04 60.4 105.86L63.8 101.9L65.13 101.9L61.23 106.26L65.4 111ZM71.34 111L66.62 111L66.62 101.9L67.68 101.9L67.68 110.04L71.34 110.04L71.34 111ZM78.5 110.62Q77.49 111.15 75.98 111.15Q74.04 111.15 72.87 109.9Q71.71 108.65 71.71 106.62Q71.71 104.44 73.02 103.09Q74.33 101.75 76.35 101.75Q77.65 101.75 78.5 102.12L78.5 103.26Q77.52 102.71 76.34 102.71Q74.77 102.71 73.79 103.76Q72.82 104.8 72.82 106.56Q72.82 108.22 73.73 109.21Q74.65 110.19 76.12 110.19Q77.5 110.19 78.5 109.58L78.5 110.62ZM87.19 111L86.13 111L86.13 106.85L81.42 106.85L81.42 111L80.35 111L80.35 101.9L81.42 101.9L81.42 105.89L86.13 105.89L86.13 101.9L87.19 101.9L87.19 111Z" fill="rgb(0,0,0)"/>
<rect x="180" y="138" width="110" height="46" fill="rgb(224,239,224)"/>
<rect x="296" y="138" width="110" height="46" fill="rgb(163,209,163)"/>
<rect x="412" y="138" width="110" height="46" fill="rgb(0,128,0)"/>
<rect x="528" y="138" width="110" height="46" fill="rgb(77,101,77)"/>
<rect x="644" y="138" width="110" height="46" fill="rgb(0,51,0)"/>
<path d="M22.6 164.48Q22.6 168.06 19.17 168.06Q17.97 168.06 17.07 167.6L17.07 166.56Q18.16 167.17 19.16 167.17Q21.56 167.17 21.56 164.62L21.56 163.91L21.54 163.91Q20.79 165.15 19.3 165.15Q18.09 165.15 17.35 164.29Q16.61 163.42 16.61 161.96Q16.61 160.3 17.4 159.33Q18.2 158.35 19.59 158.35Q20.9 158.35 21.54 159.4L21.56 159.4L21.56 158.5L22.6 158.5L22.6 164.48ZM21.56 162.06L21.56 161.1Q21.56 160.33 21.03 159.78Q20.51 159.22 19.73 159.22Q18.77 159.22 18.22 159.93Q17.68 160.63 17.68 161.89Q17.68 162.98 18.2 163.63Q18.72 164.28 19.59 164.28Q20.46 164.28 21.01 163.65Q21.56 163.03 21.56 162.06ZM28.1 159.55Q27.83 159.34 27.31 159.34Q26.65 159.34 26.2 159.97Q25.75 160.6 25.75 161.69L25.75 165L24.71 165L24.71 158.5L25.75 158.5L25.75 159.84L25.78 159.84Q26 159.15 26.46 158.77Q26.91 158.39 27.48 158.39Q27.88 158.39 28.1 158.47L28.1 159.55ZM34.45 162.01L29.86 162.01Q29.89 163.1 30.44 163.69Q31 164.28 31.98 164.28Q33.08 164.28 34 163.55L34 164.53Q33.14 165.15 31.73 165.15Q30.36 165.15 29.57 164.27Q28.78 163.38 28.78 161.78Q28.78 160.26 29.64 159.31Q30.5 158.35 31.78 158.35Q33.05 158.35 33.75 159.17Q34.45 160 34.45 161.46L34.45 162.01ZM33.38 161.13Q33.38 160.23 32.95 159.73Q32.52 159.22 31.76 159.22Q31.02 159.22 30.51 159.75Q29.99 160.28 29.87 161.13L33.38 161.13ZM41.25 162.01L36.66 162.01Q36.68 163.1 37.24 163.69Q37.8 164.28 38.78 164.28Q39.88 164.28 40.8 163.55L40.8 164.53Q39.94 165.15 38.53 165.15Q37.15 165.15 36.37 164.27Q35.58 163.38 35.58 161.78Q35.58 160.26 36.44 159.31Q37.3 158.35 38.57 158.35Q39.85 158.35 40.55 159.17Q41.25 160 41.25 161.46L41.25 162.01ZM40.18 161.13Q40.17 160.23 39.74 159.73Q39.32 159.22 38.56 159.22Q37.82 159.22 37.3 159.75Q36.79 160.28 36.67 161.13L40.18 161.13ZM48.21 165L47.17 165L47.17 161.29Q47.17 159.22 45.66 159.22Q44.88 159.22 44.37 159.81Q43.86 160.4 43.86 161.29L43.86 165L42.82 165L42.82 158.5L43.86 158.5L43.86 159.58L43.89 159.58Q44.62 158.35 46.02 158.35Q47.08 158.35 47.65 159.04Q48.21 159.73 48.21 161.03L48.21 165ZM56.91 164.77L56.91 163.65Q57.76 164.28 58.78 164.28Q60.15 164.28 60.15 163.36Q60.15 163.1 60.03 162.92Q59.92 162.74 59.72 162.6Q59.52 162.46 59.25 162.35Q58.98 162.24 58.67 162.12Q58.24 161.95 57.91 161.78Q57.58 161.6 57.36 161.38Q57.15 161.16 57.03 160.88Q56.92 160.6 56.92 160.23Q56.92 159.77 57.13 159.42Q57.34 159.06 57.69 158.83Q58.04 158.59 58.48 158.47Q58.94 158.35 59.41 158.35Q60.26 158.35 60.92 158.64L60.92 159.69Q60.2 159.22 59.27 159.22Q58.98 159.22 58.74 159.29Q58.51 159.36 58.34 159.48Q58.17 159.6 58.08 159.77Q57.99 159.93 57.99 160.14Q57.99 160.39 58.08 160.56Q58.17 160.73 58.35 160.87Q58.53 161 58.78 161.11Q59.04 161.22 59.36 161.34Q59.79 161.51 60.13 161.69Q60.48 161.86 60.72 162.08Q60.96 162.3 61.09 162.58Q61.22 162.87 61.22 163.26Q61.22 163.74 61 164.1Q60.79 164.45 60.44 164.69Q60.08 164.92 59.62 165.04Q59.16 165.15 58.65 165.15Q57.65 165.15 56.91 164.77ZM69.48 165L68.21 165L66.69 162.45Q66.48 162.09 66.29 161.85Q66.09 161.59 65.88 161.43Q65.68 161.27 65.43 161.2Q65.2 161.13 64.9 161.13L64.03 161.13L64.03 165L62.96 165L62.96 155.9L65.68 155.9Q66.27 155.9 66.77 156.05Q67.28 156.2 67.65 156.5Q68.02 156.81 68.23 157.26Q68.44 157.71 68.44 158.32Q68.44 158.8 68.3 159.2Q68.16 159.59 67.89 159.9Q67.63 160.21 67.26 160.44Q66.89 160.65 66.42 160.77L66.42 160.8Q66.65 160.9 66.82 161.03Q66.99 161.16 67.14 161.34Q67.29 161.52 67.44 161.74Q67.59 161.97 67.78 162.26L69.48 165ZM64.03 156.86L64.03 160.16L65.47 160.16Q65.87 160.16 66.21 160.04Q66.55 159.92 66.8 159.7Q67.05 159.47 67.19 159.15Q67.33 158.82 67.33 158.41Q67.33 157.68 66.85 157.27Q66.38 156.86 65.49 156.86L64.03 156.86ZM77.36 164.38Q75.99 165.15 74.31 165.15Q72.36 165.15 71.16 163.9Q69.96 162.64 69.96 160.57Q69.96 158.46 71.29 157.1Q72.63 155.75 74.68 155.75Q76.16 155.75 77.17 156.23L77.17 157.41Q76.07 156.71 74.56 156.71Q73.03 156.71 72.05 157.76Q71.07 158.82 71.07 160.49Q71.07 162.22 71.98 163.21Q72.89 164.19 74.44 164.19Q75.51 164.19 76.29 163.77L76.29 161.22L74.3 161.22L74.3 160.25L77.36 160.25L77.36 164.38ZM79.47 165L79.47 155.9L82.06 155.9Q83.25 155.9 83.94 156.48Q84.63 157.05 84.63 157.98Q84.63 158.75 84.21 159.33Q83.79 159.9 83.05 160.14L83.05 160.16Q83.98 160.27 84.53 160.86Q85.08 161.45 85.08 162.38Q85.08 163.55 84.24 164.28Q83.4 165 82.13 165L79.47 165ZM80.54 156.86L80.54 159.8L81.63 159.8Q82.51 159.8 83.01 159.38Q83.51 158.96 83.51 158.19Q83.51 156.86 81.77 156.86L80.54 156.86ZM80.54 160.76L80.54 164.04L81.99 164.04Q82.93 164.04 83.44 163.59Q83.96 163.15 83.96 162.37Q83.96 160.76 81.77 160.76L80.54 160.76Z" fill="rgb(0,0,0)"/>
<rect x="180" y="192" width="110" height="46" fill="rgb(172,253,165)"/>
<rect x="296" y="192" width="110" height="46" fill="rgb(114,210,107)"/>
<rect x="412" y="192" width="110" height="46" fill="rgb(53,159,49)"/>
<rect x="528" y="192" width="110" height="46" fill="rgb(0,108,0)"/>
<rect x="644" y="192" width="110" height="46" fill="rgb(0,57,0)"/>
<path d="M22.6 218.48Q22.6 222.06 19.17 222.06Q17.97 222.06 17.07 221.6L17.07 220.56Q18.16 221.17 19.16 221.17Q21.56 221.17 21.56 218.62L21.56 217.91L21.54 217.91Q20.79 219.15 19.3 219.15Q18.09 219.15 17.35 218.29Q16.61 217.42 16.61 215.96Q16.61 214.3 17.4 213.33Q18.2 212.35 19.59 212.35Q20.9 212.35 21.54 213.4L21.56 213.4L21.56 212.5L22.6 212.5L22.6 218.48ZM21.56 216.06L21.56 215.1Q21.56 214.33 21.03 213.78Q20.51 213.22 19.73 213.22Q18.77 213.22 18.22 213.93Q17.68 214.63 17.68 215.89Q17.68 216.98 18.2 217.63Q18.72 218.28 19.59 218.28Q20.46 218.28 21.01 217.65Q21.56 217.03 21.56 216.06ZM28.1 213.55Q27.83 213.34 27.31 213.34Q26.65 213.34 26.2 213.97Q25.75 214.6 25.75 215.69L25.75 219L24.71 219L24.71 212.5L25.75 212.5L25.75 213.84L25.78 213.84Q26 213.15 26.46 212.77Q26.91 212.39 27.48 212.39Q27.88 212.39 28.1 212.47L28.1 213.55ZM34.45 216.01L29.86 216.01Q29.89 217.1 30.44 217.69Q31 218.28 31.98 218.28Q33.08 218.28 34 217.55L34 218.53Q33.14 219.15 31.73 219.15Q30.36 219.15 29.57 218.27Q28.78 217.38 28.78 215.78Q28.78 214.26 29.64 213.31Q30.5 212.35 31.78 212.35Q33.05 212.35 33.75 213.17Q34.45 214 34.45 215.46L34.45 216.01ZM33.38 215.13Q33.38 214.23 32.95 213.73Q32.52 213.22 31.76 213.22Q31.02 213.22 30.51 213.75Q29.99 214.28 29.87 215.13L33.38 215.13ZM41.25 216.01L36.66 216.01Q36.68 217.1 37.24 217.69Q37.8 218.28 38.78 218.28Q39.88 218.28 40.8 217.55L40.8 218.53Q39.94 219.15 38.53 219.15Q37.15 219.15 36.37 218.27Q35.58 217.38 35.58 215.78Q35.58 214.26 36.44 213.31Q37.3 212.35 38.57 212.35Q39.85 212.35 40.55 213.17Q41.25 214 41.25 215.46L41.25 216.01ZM40.18 215.13Q40.17 214.23 39.74 213.73Q39.32 213.22 38.56 213.22Q37.82 213.22 37.3 213.75Q36.79 214.28 36.67 215.13L40.18 215.13ZM48.21 219L47.17 219L47.17 215.29Q47.17 213.22 45.66 213.22Q44.88 213.22 44.37 213.81Q43.86 214.4 43.86 215.29L43.86 219L42.82 219L42.82 212.5L43.86 212.5L43.86 213.58L43.89 213.58Q44.62 212.35 46.02 212.35Q47.08 212.35 47.65 213.04Q48.21 213.73 48.21 215.03L48.21 219ZM61.11 219.15Q59.18 219.15 58.01 217.88Q56.85 216.6 56.85 214.56Q56.85 212.36 58.03 211.05Q59.22 209.75 61.26 209.75Q63.15 209.75 64.3 211.01Q65.45 212.28 65.45 214.33Q65.45 216.56 64.27 217.86Q63.09 219.15 61.11 219.15ZM61.19 210.71Q59.75 210.71 58.86 211.74Q57.96 212.78 57.96 214.46Q57.96 216.14 58.83 217.17Q59.71 218.19 61.11 218.19Q62.61 218.19 63.47 217.22Q64.34 216.24 64.34 214.48Q64.34 212.68 63.5 211.69Q62.66 210.71 61.19 210.71ZM73.58 219L72.09 219L68.57 214.84Q68.38 214.6 68.33 214.52L68.31 214.52L68.31 219L67.24 219L67.24 209.9L68.31 209.9L68.31 214.18L68.33 214.18Q68.42 214.04 68.57 213.86L71.98 209.9L73.3 209.9L69.4 214.26L73.58 219ZM79.51 219L74.79 219L74.79 209.9L75.85 209.9L75.85 218.04L79.51 218.04L79.51 219ZM86.67 218.62Q85.66 219.15 84.16 219.15Q82.21 219.15 81.05 217.9Q79.88 216.65 79.88 214.62Q79.88 212.44 81.19 211.09Q82.51 209.75 84.52 209.75Q85.82 209.75 86.67 210.12L86.67 211.26Q85.69 210.71 84.51 210.71Q82.94 210.71 81.97 211.76Q81 212.8 81 214.56Q81 216.22 81.9 217.21Q82.82 218.19 84.3 218.19Q85.67 218.19 86.67 217.58L86.67 218.62ZM95.36 219L94.3 219L94.3 214.85L89.59 214.85L89.59 219L88.52 219L88.52 209.9L89.59 209.9L89.59 213.89L94.3 213.89L94.3 209.9L95.36 209.9L95.36 219Z" fill="rgb(0,0,0)"/>
<rect x="180" y="246" width="110" height="46" fill="rgb(255,255,224)"/>
<rect x="296" y="246" width="110" height="46" fill="rgb(255,255,163)"/>
<rect x="412" y="246" width="110" height="46" fill="rgb(255,255,0)"/>
<rect x="528" y="246" width="110" height="46" fill="rgb(51,51,0)"/>
<rect x="644" y="246" width="110" height="46" fill="rgb(12,12,0)"/>
<path d="M22.23 266.5L19.24 274.04Q18.44 276.06 16.99 276.06Q16.58 276.06 16.31 275.98L16.31 275.04Q16.65 275.16 16.93 275.16Q17.71 275.16 18.11 274.22L18.63 272.99L16.09 266.5L17.24 266.5L19 271.5Q19.03 271.6 19.14 272L19.17 272Q19.21 271.84 19.3 271.51L21.15 266.5L22.23 266.5ZM28.57 270.01L23.99 270.01Q24.01 271.1 24.57 271.69Q25.13 272.28 26.11 272.28Q27.2 272.28 28.12 271.55L28.12 272.53Q27.27 273.15 25.86 273.15Q24.48 273.15 23.69 272.27Q22.91 271.38 22.91 269.78Q22.91 268.26 23.76 267.31Q24.63 266.35 25.9 266.35Q27.18 266.35 27.88 267.17Q28.57 268 28.57 269.46L28.57 270.01ZM27.51 269.13Q27.5 268.23 27.07 267.73Q26.65 267.22 25.88 267.22Q25.15 267.22 24.63 267.75Q24.12 268.28 24 269.13L27.51 269.13ZM31.19 273L30.15 273L30.15 263.38L31.19 263.38L31.19 273ZM34.34 273L33.3 273L33.3 263.38L34.34 263.38L34.34 273ZM39.18 273.15Q37.74 273.15 36.87 272.24Q36.02 271.33 36.02 269.83Q36.02 268.19 36.91 267.27Q37.81 266.35 39.33 266.35Q40.78 266.35 41.6 267.24Q42.41 268.14 42.41 269.72Q42.41 271.28 41.53 272.22Q40.66 273.15 39.18 273.15ZM39.25 267.22Q38.25 267.22 37.67 267.91Q37.08 268.59 37.08 269.79Q37.08 270.94 37.67 271.61Q38.26 272.28 39.25 272.28Q40.26 272.28 40.8 271.62Q41.35 270.97 41.35 269.76Q41.35 268.54 40.8 267.88Q40.26 267.22 39.25 267.22ZM52.27 266.5L50.32 273L49.25 273L47.91 268.35Q47.83 268.08 47.8 267.74L47.78 267.74Q47.76 267.97 47.65 268.33L46.19 273L45.15 273L43.18 266.5L44.28 266.5L45.62 271.39Q45.68 271.61 45.71 271.97L45.76 271.97Q45.78 271.69 45.88 271.38L47.37 266.5L48.33 266.5L49.67 271.4Q49.73 271.64 49.77 271.98L49.82 271.98Q49.83 271.74 49.92 271.4L51.25 266.5L52.27 266.5ZM60.21 272.77L60.21 271.65Q61.06 272.28 62.08 272.28Q63.45 272.28 63.45 271.36Q63.45 271.1 63.33 270.92Q63.22 270.74 63.01 270.6Q62.82 270.46 62.54 270.35Q62.28 270.24 61.97 270.12Q61.53 269.95 61.2 269.78Q60.88 269.6 60.66 269.38Q60.44 269.16 60.33 268.88Q60.22 268.6 60.22 268.23Q60.22 267.77 60.43 267.42Q60.64 267.06 60.99 266.83Q61.34 266.59 61.78 266.47Q62.23 266.35 62.71 266.35Q63.55 266.35 64.22 266.64L64.22 267.69Q63.5 267.22 62.57 267.22Q62.28 267.22 62.04 267.29Q61.81 267.36 61.64 267.48Q61.47 267.6 61.38 267.77Q61.29 267.93 61.29 268.14Q61.29 268.39 61.38 268.56Q61.47 268.73 61.65 268.87Q61.83 269 62.08 269.11Q62.33 269.22 62.66 269.34Q63.09 269.51 63.43 269.69Q63.77 269.86 64.02 270.08Q64.26 270.3 64.38 270.58Q64.52 270.87 64.52 271.26Q64.52 271.74 64.3 272.1Q64.09 272.45 63.74 272.69Q63.38 272.92 62.92 273.04Q62.45 273.15 61.95 273.15Q60.94 273.15 60.21 272.77ZM72.78 273L71.51 273L69.99 270.45Q69.78 270.09 69.58 269.85Q69.39 269.59 69.18 269.43Q68.97 269.27 68.73 269.2Q68.5 269.13 68.2 269.13L67.32 269.13L67.32 273L66.26 273L66.26 263.9L68.97 263.9Q69.57 263.9 70.07 264.05Q70.58 264.2 70.95 264.5Q71.32 264.81 71.53 265.26Q71.74 265.71 71.74 266.32Q71.74 266.8 71.59 267.2Q71.45 267.59 71.19 267.9Q70.93 268.21 70.55 268.44Q70.19 268.65 69.72 268.77L69.72 268.8Q69.95 268.9 70.12 269.03Q70.29 269.16 70.44 269.34Q70.59 269.52 70.74 269.74Q70.89 269.97 71.07 270.26L72.78 273ZM67.32 264.86L67.32 268.16L68.77 268.16Q69.17 268.16 69.51 268.04Q69.85 267.92 70.1 267.7Q70.34 267.47 70.48 267.15Q70.62 266.82 70.62 266.41Q70.62 265.68 70.15 265.27Q69.68 264.86 68.78 264.86L67.32 264.86ZM80.65 272.38Q79.28 273.15 77.61 273.15Q75.66 273.15 74.45 271.9Q73.25 270.64 73.25 268.57Q73.25 266.46 74.59 265.1Q75.93 263.75 77.98 263.75Q79.46 263.75 80.47 264.23L80.47 265.41Q79.37 264.71 77.85 264.71Q76.33 264.71 75.35 265.76Q74.37 266.82 74.37 268.49Q74.37 270.22 75.28 271.21Q76.19 272.19 77.74 272.19Q78.81 272.19 79.59 271.77L79.59 269.22L77.59 269.22L77.59 268.25L80.65 268.25L80.65 272.38ZM82.77 273L82.77 263.9L85.36 263.9Q86.54 263.9 87.23 264.48Q87.93 265.05 87.93 265.98Q87.93 266.75 87.51 267.33Q87.09 267.9 86.35 268.14L86.35 268.16Q87.27 268.27 87.82 268.86Q88.38 269.45 88.38 270.38Q88.38 271.55 87.54 272.28Q86.7 273 85.42 273L82.77 273ZM83.84 264.86L83.84 267.8L84.93 267.8Q85.81 267.8 86.31 267.38Q86.81 266.96 86.81 266.19Q86.81 264.86 85.06 264.86L83.84 264.86ZM83.84 268.76L83.84 272.04L85.29 272.04Q86.22 272.04 86.74 271.59Q87.26 271.15 87.26 270.37Q87.26 268.76 85.06 268.76L83.84 268.76Z" fill="rgb(0,0,0)"/>
<rect x="180" y="300" width="110" height="46" fill="rgb(236,238,86)"/>
<rect x="296" y="300" width="110" height="46" fill="rgb(191,191,0)"/>
<rect x="412" y="300" width="110" height="46" fill="rgb(140,140,0)"/>
<rect x="528" y="300" width="110" height="46" fill="rgb(92,92,0)"/>
<rect x="644" y="300" width="110" height="46" fill="rgb(48,48,0)"/>
<path d="M22.23 320.5L19.24 328.04Q18.44 330.06 16.99 330.06Q16.58 330.06 16.31 329.98L16.31 329.04Q16.65 329.16 16.93 329.16Q17.71 329.16 18.11 328.22L18.63 326.99L16.09 320.5L17.24 320.5L19 325.5Q19.03 325.6 19.14 326L19.17 326Q19.21 325.84 19.3 325.51L21.15 320.5L22.23 320.5ZM28.57 324.01L23.99 324.01Q24.01 325.1 24.57 325.69Q25.13 326.28 26.11 326.28Q27.2 326.28 28.12 325.55L28.12 326.53Q27.27 327.15 25.86 327.15Q24.48 327.15 23.69 326.27Q22.91 325.38 22.91 323.78Q22.91 322.26 23.76 321.31Q24.63 320.35 25.9 320.35Q27.18 320.35 27.88 321.17Q28.57 322 28.57 323.46L28.57 324.01ZM27.51 323.13Q27.5 322.23 27.07 321.73Q26.65 321.22 25.88 321.22Q25.15 321.22 24.63 321.75Q24.12 322.28 24 323.13L27.51 323.13ZM31.19 327L30.15 327L30.15 317.38L31.19 317.38L31.19 327ZM34.34 327L33.3 327L33.3 317.38L34.34 317.38L34.34 327ZM39.18 327.15Q37.74 327.15 36.87 326.24Q36.02 325.33 36.02 323.83Q36.02 322.19 36.91 321.27Q37.81 320.35 39.33 320.35Q40.78 320.35 41.6 321.24Q42.41 322.14 42.41 323.72Q42.41 325.28 41.53 326.22Q40.66 327.15 39.18 327.15ZM39.25 321.22Q38.25 321.22 37.67 321.91Q37.08 322.59 37.08 323.79Q37.08 324.94 37.67 325.61Q38.26 326.28 39.25 326.28Q40.26 326.28 40.8 325.62Q41.35 324.97 41.35 323.76Q41.35 322.54 40.8 321.88Q40.26 321.22 39.25 321.22ZM52.27 320.5L50.32 327L49.25 327L47.91 322.35Q47.83 322.08 47.8 321.74L47.78 321.74Q47.76 321.97 47.65 322.33L46.19 327L45.15 327L43.18 320.5L44.28 320.5L45.62 325.39Q45.68 325.61 45.71 325.97L45.76 325.97Q45.78 325.69 45.88 325.38L47.37 320.5L48.33 320.5L49.67 325.4Q49.73 325.64 49.77 325.98L49.82 325.98Q49.83 325.74 49.92 325.4L51.25 320.5L52.27 320.5ZM64.41 327.15Q62.47 327.15 61.31 325.88Q60.14 324.6 60.14 322.56Q60.14 320.36 61.33 319.05Q62.52 317.75 64.56 317.75Q66.45 317.75 67.6 319.01Q68.75 320.28 68.75 322.33Q68.75 324.56 67.57 325.86Q66.39 327.15 64.41 327.15ZM64.49 318.71Q63.05 318.71 62.16 319.74Q61.26 320.78 61.26 322.46Q61.26 324.14 62.13 325.17Q63.01 326.19 64.41 326.19Q65.91 326.19 66.77 325.22Q67.63 324.24 67.63 322.48Q67.63 320.68 66.8 319.69Q65.96 318.71 64.49 318.71ZM76.87 327L75.39 327L71.87 322.84Q71.67 322.6 71.63 322.52L71.6 322.52L71.6 327L70.54 327L70.54 317.9L71.6 317.9L71.6 322.18L71.63 322.18Q71.72 322.04 71.87 321.86L75.27 317.9L76.6 317.9L72.7 322.26L76.87 327ZM82.81 327L78.08 327L78.08 317.9L79.15 317.9L79.15 326.04L82.81 326.04L82.81 327ZM89.97 326.62Q88.96 327.15 87.45 327.15Q85.51 327.15 84.34 325.9Q83.17 324.65 83.17 322.62Q83.17 320.44 84.49 319.09Q85.8 317.75 87.82 317.75Q89.12 317.75 89.97 318.12L89.97 319.26Q88.99 318.71 87.81 318.71Q86.24 318.71 85.26 319.76Q84.29 320.8 84.29 322.56Q84.29 324.22 85.2 325.21Q86.11 326.19 87.59 326.19Q88.96 326.19 89.97 325.58L89.97 326.62ZM98.66 327L97.59 327L97.59 322.85L92.88 322.85L92.88 327L91.82 327L91.82 317.9L92.88 317.9L92.88 321.89L97.59 321.89L97.59 317.9L98.66 317.9L98.66 327Z" fill="rgb(0,0,0)"/>
<rect x="180" y="354" width="110" height="46" fill="rgb(255,224,224)"/>
<rect x="296" y="354" width="110" height="46" fill="rgb(255,163,163)"/>
<rect x="412" y="354" width="110" height="46" fill="rgb(255,0,0)"/>
<rect x="528" y="354" width="110" height="46" fill="rgb(201,77,77)"/>
<rect x="644" y="354" width="110" height="46" fill="rgb(102,0,0)"/>
<path d="M20.44 375.55Q20.17 375.34 19.66 375.34Q18.99 375.34 18.54 375.97Q18.09 376.6 18.09 377.69L18.09 381L17.05 381L17.05 374.5L18.09 374.5L18.09 375.84L18.12 375.84Q18.34 375.15 18.8 374.77Q19.26 374.39 19.82 374.39Q20.23 374.39 20.44 374.47L20.44 375.55ZM26.79 378.01L22.2 378.01Q22.23 379.1 22.79 379.69Q23.35 380.28 24.32 380.28Q25.42 380.28 26.34 379.55L26.34 380.53Q25.49 381.15 24.08 381.15Q22.7 381.15 21.91 380.27Q21.13 379.38 21.13 377.78Q21.13 376.26 21.98 375.31Q22.85 374.35 24.12 374.35Q25.4 374.35 26.1 375.17Q26.79 376 26.79 377.46L26.79 378.01ZM25.73 377.13Q25.72 376.23 25.29 375.73Q24.86 375.22 24.1 375.22Q23.37 375.22 22.85 375.75Q22.34 376.28 22.22 377.13L25.73 377.13ZM33.91 381L32.87 381L32.87 379.9L32.85 379.9Q32.12 381.15 30.61 381.15Q29.39 381.15 28.65 380.28Q27.92 379.41 27.92 377.9Q27.92 376.29 28.73 375.32Q29.55 374.35 30.9 374.35Q32.24 374.35 32.85 375.4L32.87 375.4L32.87 371.38L33.91 371.38L33.91 381ZM32.87 378.06L32.87 377.1Q32.87 376.32 32.35 375.77Q31.83 375.22 31.03 375.22Q30.08 375.22 29.53 375.92Q28.99 376.62 28.99 377.85Q28.99 378.98 29.51 379.63Q30.04 380.28 30.92 380.28Q31.79 380.28 32.33 379.65Q32.87 379.02 32.87 378.06ZM42.75 380.77L42.75 379.65Q43.6 380.28 44.63 380.28Q46 380.28 46 379.36Q46 379.1 45.88 378.92Q45.76 378.74 45.56 378.6Q45.36 378.46 45.09 378.35Q44.82 378.24 44.51 378.12Q44.08 377.95 43.75 377.78Q43.43 377.6 43.2 377.38Q42.99 377.16 42.87 376.88Q42.77 376.6 42.77 376.23Q42.77 375.77 42.98 375.42Q43.19 375.06 43.53 374.83Q43.88 374.59 44.33 374.47Q44.78 374.35 45.25 374.35Q46.1 374.35 46.77 374.64L46.77 375.69Q46.05 375.22 45.12 375.22Q44.82 375.22 44.59 375.29Q44.35 375.36 44.18 375.48Q44.02 375.6 43.92 375.77Q43.83 375.93 43.83 376.14Q43.83 376.39 43.92 376.56Q44.02 376.73 44.19 376.87Q44.37 377 44.63 377.11Q44.88 377.22 45.2 377.34Q45.64 377.51 45.98 377.69Q46.32 377.86 46.56 378.08Q46.8 378.3 46.93 378.58Q47.06 378.87 47.06 379.26Q47.06 379.74 46.85 380.1Q46.64 380.45 46.28 380.69Q45.93 380.92 45.46 381.04Q45 381.15 44.49 381.15Q43.49 381.15 42.75 380.77ZM55.33 381L54.06 381L52.54 378.45Q52.33 378.09 52.13 377.85Q51.93 377.59 51.72 377.43Q51.52 377.27 51.28 377.2Q51.04 377.13 50.75 377.13L49.87 377.13L49.87 381L48.8 381L48.8 371.9L51.52 371.9Q52.12 371.9 52.62 372.05Q53.13 372.2 53.49 372.5Q53.87 372.81 54.08 373.26Q54.29 373.71 54.29 374.32Q54.29 374.8 54.14 375.2Q54 375.59 53.73 375.9Q53.47 376.21 53.1 376.44Q52.73 376.65 52.27 376.77L52.27 376.8Q52.5 376.9 52.66 377.03Q52.83 377.16 52.99 377.34Q53.14 377.52 53.28 377.74Q53.44 377.97 53.62 378.26L55.33 381ZM49.87 372.86L49.87 376.16L51.32 376.16Q51.72 376.16 52.05 376.04Q52.4 375.92 52.64 375.7Q52.89 375.47 53.03 375.15Q53.17 374.82 53.17 374.41Q53.17 373.68 52.69 373.27Q52.22 372.86 51.33 372.86L49.87 372.86ZM63.2 380.38Q61.83 381.15 60.15 381.15Q58.21 381.15 57 379.9Q55.8 378.64 55.8 376.57Q55.8 374.46 57.13 373.1Q58.47 371.75 60.52 371.75Q62.01 371.75 63.02 372.23L63.02 373.41Q61.91 372.71 60.4 372.71Q58.87 372.71 57.89 373.76Q56.92 374.82 56.92 376.49Q56.92 378.22 57.82 379.21Q58.73 380.19 60.29 380.19Q61.35 380.19 62.13 379.77L62.13 377.22L60.14 377.22L60.14 376.25L63.2 376.25L63.2 380.38ZM65.32 381L65.32 371.9L67.91 371.9Q69.09 371.9 69.78 372.48Q70.47 373.05 70.47 373.98Q70.47 374.75 70.05 375.33Q69.63 375.9 68.9 376.14L68.9 376.16Q69.82 376.27 70.37 376.86Q70.92 377.45 70.92 378.38Q70.92 379.55 70.09 380.28Q69.25 381 67.97 381L65.32 381ZM66.38 372.86L66.38 375.8L67.48 375.8Q68.35 375.8 68.85 375.38Q69.36 374.96 69.36 374.19Q69.36 372.86 67.61 372.86L66.38 372.86ZM66.38 376.76L66.38 380.04L67.83 380.04Q68.77 380.04 69.29 379.59Q69.81 379.15 69.81 378.37Q69.81 376.76 67.61 376.76L66.38 376.76Z" fill="rgb(0,0,0)"/>
<rect x="180" y="408" width="110" height="46" fill="rgb(255,219,213)"/>
<rect x="296" y="408" width="110" height="46" fill="rgb(255,150,135)"/>
<rect x="412" y="408" width="110" height="46" fill="rgb(251,0,0)"/>
<rect x="528" y="408" width="110" height="46" fill="rgb(168,0,0)"/>
<rect x="644" y="408" width="110" height="46" fill="rgb(93,0,0)"/>
<path d="M20.44 429.55Q20.17 429.34 19.66 429.34Q18.99 429.34 18.54 429.97Q18.09 430.6 18.09 431.69L18.09 435L17.05 435L17.05 428.5L18.09 428.5L18.09 429.84L18.12 429.84Q18.34 429.15 18.8 428.77Q19.26 428.39 19.82 428.39Q20.23 428.39 20.44 428.47L20.44 429.55ZM26.79 432.01L22.2 432.01Q22.23 433.1 22.79 433.69Q23.35 434.28 24.32 434.28Q25.42 434.28 26.34 433.55L26.34 434.53Q25.49 435.15 24.08 435.15Q22.7 435.15 21.91 434.27Q21.13 433.38 21.13 431.78Q21.13 430.26 21.98 429.31Q22.85 428.35 24.12 428.35Q25.4 428.35 26.1 429.17Q26.79 430 26.79 431.46L26.79 432.01ZM25.73 431.13Q25.72 430.23 25.29 429.73Q24.86 429.22 24.1 429.22Q23.37 429.22 22.85 429.75Q22.34 430.28 22.22 431.13L25.73 431.13ZM33.91 435L32.87 435L32.87 433.9L32.85 433.9Q32.12 435.15 30.61 435.15Q29.39 435.15 28.65 434.28Q27.92 433.41 27.92 431.9Q27.92 430.29 28.73 429.32Q29.55 428.35 30.9 428.35Q32.24 428.35 32.85 429.4L32.87 429.4L32.87 425.38L33.91 425.38L33.91 435ZM32.87 432.06L32.87 431.1Q32.87 430.32 32.35 429.77Q31.83 429.22 31.03 429.22Q30.08 429.22 29.53 429.92Q28.99 430.62 28.99 431.85Q28.99 432.98 29.51 433.63Q30.04 434.28 30.92 434.28Q31.79 434.28 32.33 433.65Q32.87 433.02 32.87 432.06ZM46.96 435.15Q45.02 435.15 43.85 433.88Q42.69 432.6 42.69 430.56Q42.69 428.36 43.88 427.05Q45.06 425.75 47.11 425.75Q48.99 425.75 50.14 427.01Q51.3 428.28 51.3 430.33Q51.3 432.56 50.12 433.86Q48.94 435.15 46.96 435.15ZM47.03 426.71Q45.6 426.71 44.7 427.74Q43.81 428.78 43.81 430.46Q43.81 432.14 44.68 433.17Q45.55 434.19 46.96 434.19Q48.45 434.19 49.32 433.22Q50.18 432.24 50.18 430.48Q50.18 428.68 49.34 427.69Q48.5 426.71 47.03 426.71ZM59.42 435L57.93 435L54.42 430.84Q54.22 430.6 54.18 430.52L54.15 430.52L54.15 435L53.08 435L53.08 425.9L54.15 425.9L54.15 430.18L54.18 430.18Q54.26 430.04 54.42 429.86L57.82 425.9L59.15 425.9L55.24 430.26L59.42 435ZM65.35 435L60.63 435L60.63 425.9L61.7 425.9L61.7 434.04L65.35 434.04L65.35 435ZM72.51 434.62Q71.5 435.15 70 435.15Q68.06 435.15 66.89 433.9Q65.72 432.65 65.72 430.62Q65.72 428.44 67.04 427.09Q68.35 425.75 70.37 425.75Q71.66 425.75 72.51 426.12L72.51 427.26Q71.54 426.71 70.36 426.71Q68.79 426.71 67.81 427.76Q66.84 428.8 66.84 430.56Q66.84 432.22 67.75 433.21Q68.66 434.19 70.14 434.19Q71.51 434.19 72.51 433.58L72.51 434.62ZM81.21 435L80.14 435L80.14 430.85L75.43 430.85L75.43 435L74.37 435L74.37 425.9L75.43 425.9L75.43 429.89L80.14 429.89L80.14 425.9L81.21 425.9L81.21 435Z" fill="rgb(0,0,0)"/>
<rect x="180" y="462" width="110" height="46" fill="rgb(239,224,239)"/>
<rect x="296" y="462" width="110" height="46" fill="rgb(209,163,209)"/>
<rect x="412" y="462" width="110" height="46" fill="rgb(128,0,128)"/>
<rect x="528" y="462" width="110" height="46" fill="rgb(101,77,101)"/>
<rect x="644" y="462" width="110" height="46" fill="rgb(51,0,51)"/>
<path d="M18.12 488.06L18.09 488.06L18.09 491.99L17.05 491.99L17.05 482.5L18.09 482.5L18.09 483.64L18.12 483.64Q18.89 482.35 20.37 482.35Q21.62 482.35 22.33 483.22Q23.03 484.09 23.03 485.56Q23.03 487.19 22.24 488.17Q21.45 489.15 20.07 489.15Q18.81 489.15 18.12 488.06ZM18.09 485.44L18.09 486.35Q18.09 487.15 18.62 487.72Q19.14 488.28 19.95 488.28Q20.89 488.28 21.43 487.55Q21.97 486.83 21.97 485.54Q21.97 484.46 21.47 483.84Q20.96 483.22 20.11 483.22Q19.2 483.22 18.65 483.86Q18.09 484.49 18.09 485.44ZM29.95 489L28.91 489L28.91 487.97L28.88 487.97Q28.24 489.15 26.88 489.15Q24.55 489.15 24.55 486.38L24.55 482.5L25.59 482.5L25.59 486.22Q25.59 488.28 27.16 488.28Q27.93 488.28 28.41 487.72Q28.91 487.15 28.91 486.25L28.91 482.5L29.95 482.5L29.95 489ZM35.44 483.55Q35.17 483.34 34.66 483.34Q33.99 483.34 33.54 483.97Q33.09 484.6 33.09 485.69L33.09 489L32.05 489L32.05 482.5L33.09 482.5L33.09 483.84L33.12 483.84Q33.34 483.15 33.8 482.77Q34.26 482.39 34.82 482.39Q35.23 482.39 35.44 482.47L35.44 483.55ZM37.64 488.06L37.61 488.06L37.61 491.99L36.57 491.99L36.57 482.5L37.61 482.5L37.61 483.64L37.64 483.64Q38.4 482.35 39.88 482.35Q41.14 482.35 41.84 483.22Q42.55 484.09 42.55 485.56Q42.55 487.19 41.76 488.17Q40.96 489.15 39.58 489.15Q38.32 489.15 37.64 488.06ZM37.61 485.44L37.61 486.35Q37.61 487.15 38.13 487.72Q38.66 488.28 39.46 488.28Q40.41 488.28 40.94 487.55Q41.48 486.83 41.48 485.54Q41.48 484.46 40.98 483.84Q40.48 483.22 39.62 483.22Q38.71 483.22 38.16 483.86Q37.61 484.49 37.61 485.44ZM45.25 489L44.21 489L44.21 479.38L45.25 479.38L45.25 489ZM52.59 486.01L48 486.01Q48.03 487.1 48.58 487.69Q49.14 488.28 50.12 488.28Q51.22 488.28 52.14 487.55L52.14 488.53Q51.28 489.15 49.87 489.15Q48.5 489.15 47.71 488.27Q46.92 487.38 46.92 485.78Q46.92 484.26 47.78 483.31Q48.64 482.35 49.92 482.35Q51.19 482.35 51.89 483.17Q52.59 484 52.59 485.46L52.59 486.01ZM51.52 485.13Q51.52 484.23 51.09 483.73Q50.66 483.22 49.9 483.22Q49.16 483.22 48.65 483.75Q48.13 484.28 48.01 485.13L51.52 485.13ZM60.89 488.77L60.89 487.65Q61.75 488.28 62.77 488.28Q64.14 488.28 64.14 487.36Q64.14 487.1 64.02 486.92Q63.9 486.74 63.7 486.6Q63.5 486.46 63.23 486.35Q62.96 486.24 62.65 486.12Q62.22 485.95 61.89 485.78Q61.57 485.6 61.35 485.38Q61.13 485.16 61.02 484.88Q60.91 484.6 60.91 484.23Q60.91 483.77 61.12 483.42Q61.33 483.06 61.68 482.83Q62.02 482.59 62.47 482.47Q62.92 482.35 63.4 482.35Q64.24 482.35 64.91 482.64L64.91 483.69Q64.19 483.22 63.26 483.22Q62.96 483.22 62.73 483.29Q62.49 483.36 62.32 483.48Q62.16 483.6 62.06 483.77Q61.97 483.93 61.97 484.14Q61.97 484.39 62.06 484.56Q62.16 484.73 62.34 484.87Q62.51 485 62.77 485.11Q63.02 485.22 63.34 485.34Q63.78 485.51 64.12 485.69Q64.46 485.86 64.7 486.08Q64.94 486.3 65.07 486.58Q65.2 486.87 65.2 487.26Q65.2 487.74 64.99 488.1Q64.78 488.45 64.42 488.69Q64.07 488.92 63.6 489.04Q63.14 489.15 62.63 489.15Q61.63 489.15 60.89 488.77ZM73.47 489L72.2 489L70.68 486.45Q70.47 486.09 70.27 485.85Q70.07 485.59 69.86 485.43Q69.66 485.27 69.42 485.2Q69.18 485.13 68.89 485.13L68.01 485.13L68.01 489L66.94 489L66.94 479.9L69.66 479.9Q70.26 479.9 70.76 480.05Q71.27 480.2 71.63 480.5Q72.01 480.81 72.22 481.26Q72.43 481.71 72.43 482.32Q72.43 482.8 72.28 483.2Q72.14 483.59 71.88 483.9Q71.62 484.21 71.24 484.44Q70.87 484.65 70.41 484.77L70.41 484.8Q70.64 484.9 70.8 485.03Q70.97 485.16 71.13 485.34Q71.28 485.52 71.42 485.74Q71.58 485.97 71.76 486.26L73.47 489ZM68.01 480.86L68.01 484.16L69.46 484.16Q69.86 484.16 70.19 484.04Q70.54 483.92 70.78 483.7Q71.03 483.47 71.17 483.15Q71.31 482.82 71.31 482.41Q71.31 481.68 70.83 481.27Q70.36 480.86 69.47 480.86L68.01 480.86ZM81.34 488.38Q79.97 489.15 78.29 489.15Q76.35 489.15 75.14 487.9Q73.94 486.64 73.94 484.57Q73.94 482.46 75.27 481.1Q76.61 479.75 78.66 479.75Q80.15 479.75 81.16 480.23L81.16 481.41Q80.05 480.71 78.54 480.71Q77.01 480.71 76.04 481.76Q75.06 482.82 75.06 484.49Q75.06 486.22 75.97 487.21Q76.87 488.19 78.43 488.19Q79.49 488.19 80.28 487.77L80.28 485.22L78.28 485.22L78.28 484.25L81.34 484.25L81.34 488.38ZM83.46 489L83.46 479.9L86.05 479.9Q87.23 479.9 87.92 480.48Q88.61 481.05 88.61 481.98Q88.61 482.75 88.19 483.33Q87.78 483.9 87.04 484.14L87.04 484.16Q87.96 484.27 88.51 484.86Q89.06 485.45 89.06 486.38Q89.06 487.55 88.23 488.28Q87.39 489 86.11 489L83.46 489ZM84.53 480.86L84.53 483.8L85.62 483.8Q86.49 483.8 86.99 483.38Q87.5 482.96 87.5 482.19Q87.5 480.86 85.75 480.86L84.53 480.86ZM84.53 484.76L84.53 488.04L85.97 488.04Q86.91 488.04 87.43 487.59Q87.95 487.15 87.95 486.37Q87.95 484.76 85.75 484.76L84.53 484.76Z" fill="rgb(0,0,0)"/>
<rect x="180" y="516" width="110" height="46" fill="rgb(255,213,252)"/>
<rect x="296" y="516" width="110" height="46" fill="rgb(245,136,241)"/>
<rect x="412" y="516" width="110" height="46" fill="rgb(193,81,191)"/>
<rect x="528" y="516" width="110" height="46" fill="rgb(138,32,137)"/>
<rect x="644" y="516" width="110" height="46" fill="rgb(79,0,79)"/>
<path d="M18.12 542.06L18.09 542.06L18.09 545.99L17.05 545.99L17.05 536.5L18.09 536.5L18.09 537.64L18.12 537.64Q18.89 536.35 20.37 536.35Q21.62 536.35 22.33 537.22Q23.03 538.09 23.03 539.56Q23.03 541.19 22.24 542.17Q21.45 543.15 20.07 543.15Q18.81 543.15 18.12 542.06ZM18.09 539.44L18.09 540.35Q18.09 541.15 18.62 541.72Q19.14 542.28 19.95 542.28Q20.89 542.28 21.43 541.55Q21.97 540.83 21.97 539.54Q21.97 538.46 21.47 537.84Q20.96 537.22 20.11 537.22Q19.2 537.22 18.65 537.86Q18.09 538.49 18.09 539.44ZM29.95 543L28.91 543L28.91 541.97L28.88 541.97Q28.24 543.15 26.88 543.15Q24.55 543.15 24.55 540.38L24.55 536.5L25.59 536.5L25.59 540.22Q25.59 542.28 27.16 542.28Q27.93 542.28 28.41 541.72Q28.91 541.15 28.91 540.25L28.91 536.5L29.95 536.5L29.95 543ZM35.44 537.55Q35.17 537.34 34.66 537.34Q33.99 537.34 33.54 537.97Q33.09 538.6 33.09 539.69L33.09 543L32.05 543L32.05 536.5L33.09 536.5L33.09 537.84L33.12 537.84Q33.34 537.15 33.8 536.77Q34.26 536.39 34.82 536.39Q35.23 536.39 35.44 536.47L35.44 537.55ZM37.64 542.06L37.61 542.06L37.61 545.99L36.57 545.99L36.57 536.5L37.61 536.5L37.61 537.64L37.64 537.64Q38.4 536.35 39.88 536.35Q41.14 536.35 41.84 537.22Q42.55 538.09 42.55 539.56Q42.55 541.19 41.76 542.17Q40.96 543.15 39.58 543.15Q38.32 543.15 37.64 542.06ZM37.61 539.44L37.61 540.35Q37.61 541.15 38.13 541.72Q38.66 542.28 39.46 542.28Q40.41 542.28 40.94 541.55Q41.48 540.83 41.48 539.54Q41.48 538.46 40.98 537.84Q40.48 537.22 39.62 537.22Q38.71 537.22 38.16 537.86Q37.61 538.49 37.61 539.44ZM45.25 543L44.21 543L44.21 533.38L45.25 533.38L45.25 543ZM52.59 540.01L48 540.01Q48.03 541.1 48.58 541.69Q49.14 542.28 50.12 542.28Q51.22 542.28 52.14 541.55L52.14 542.53Q51.28 543.15 49.87 543.15Q48.5 543.15 47.71 542.27Q46.92 541.38 46.92 539.78Q46.92 538.26 47.78 537.31Q48.64 536.35 49.92 536.35Q51.19 536.35 51.89 537.17Q52.59 538 52.59 539.46L52.59 540.01ZM51.52 539.13Q51.52 538.23 51.09 537.73Q50.66 537.22 49.9 537.22Q49.16 537.22 48.65 537.75Q48.13 538.28 48.01 539.13L51.52 539.13ZM65.1 543.15Q63.16 543.15 61.99 541.88Q60.83 540.6 60.83 538.56Q60.83 536.36 62.02 535.05Q63.21 533.75 65.25 533.75Q67.13 533.75 68.28 535.01Q69.44 536.28 69.44 538.33Q69.44 540.56 68.26 541.86Q67.08 543.15 65.1 543.15ZM65.17 534.71Q63.74 534.71 62.84 535.74Q61.95 536.78 61.95 538.46Q61.95 540.14 62.82 541.17Q63.69 542.19 65.1 542.19Q66.59 542.19 67.46 541.22Q68.32 540.24 68.32 538.48Q68.32 536.68 67.48 535.69Q66.65 534.71 65.17 534.71ZM77.56 543L76.07 543L72.56 538.84Q72.36 538.6 72.32 538.52L72.29 538.52L72.29 543L71.22 543L71.22 533.9L72.29 533.9L72.29 538.18L72.32 538.18Q72.41 538.04 72.56 537.86L75.96 533.9L77.29 533.9L73.38 538.26L77.56 543ZM83.49 543L78.77 543L78.77 533.9L79.84 533.9L79.84 542.04L83.49 542.04L83.49 543ZM90.65 542.62Q89.65 543.15 88.14 543.15Q86.2 543.15 85.03 541.9Q83.86 540.65 83.86 538.62Q83.86 536.44 85.18 535.09Q86.49 533.75 88.51 533.75Q89.8 533.75 90.65 534.12L90.65 535.26Q89.68 534.71 88.5 534.71Q86.93 534.71 85.95 535.76Q84.98 536.8 84.98 538.56Q84.98 540.22 85.89 541.21Q86.8 542.19 88.28 542.19Q89.65 542.19 90.65 541.58L90.65 542.62ZM99.35 543L98.28 543L98.28 538.85L93.57 538.85L93.57 543L92.51 543L92.51 533.9L93.57 533.9L93.57 537.89L98.28 537.89L98.28 533.9L99.35 533.9L99.35 543Z" fill="rgb(0,0,0)"/>
<rect x="180" y="570" width="110" height="46" fill="rgb(224,255,255)"/>
<rect x="296" y="570" width="110" height="46" fill="rgb(163,255,255)"/>
<rect x="412" y="570" width="110" height="46" fill="rgb(0,255,255)"/>
<rect x="528" y="570" width="110" height="46" fill="rgb(0,51,51)"/>
<rect x="644" y="570" width="110" height="46" fill="rgb(0,12,12)"/>
<path d="M21.48 596.7Q20.74 597.15 19.71 597.15Q18.32 597.15 17.46 596.25Q16.61 595.34 16.61 593.9Q16.61 592.3 17.53 591.33Q18.45 590.35 19.99 590.35Q20.84 590.35 21.5 590.67L21.5 591.73Q20.77 591.22 19.95 591.22Q18.95 591.22 18.31 591.94Q17.68 592.65 17.68 593.81Q17.68 594.96 18.27 595.62Q18.88 596.28 19.88 596.28Q20.74 596.28 21.48 595.71L21.48 596.7ZM28.23 590.5L25.24 598.04Q24.44 600.06 22.99 600.06Q22.58 600.06 22.31 599.98L22.31 599.04Q22.65 599.16 22.93 599.16Q23.71 599.16 24.11 598.22L24.63 596.99L22.09 590.5L23.24 590.5L25 595.5Q25.03 595.6 25.14 596L25.17 596Q25.21 595.84 25.3 595.51L27.15 590.5L28.23 590.5ZM34 597L32.96 597L32.96 595.98L32.94 595.98Q32.26 597.15 30.94 597.15Q29.97 597.15 29.41 596.64Q28.87 596.12 28.87 595.27Q28.87 593.45 31.01 593.15L32.96 592.88Q32.96 591.22 31.62 591.22Q30.45 591.22 29.5 592.02L29.5 590.96Q30.46 590.35 31.71 590.35Q34 590.35 34 592.77L34 597ZM32.96 593.71L31.39 593.93Q30.67 594.03 30.3 594.29Q29.93 594.54 29.93 595.2Q29.93 595.67 30.27 595.98Q30.61 596.28 31.18 596.28Q31.95 596.28 32.45 595.74Q32.96 595.19 32.96 594.36L32.96 593.71ZM41.36 597L40.31 597L40.31 593.29Q40.31 591.22 38.8 591.22Q38.02 591.22 37.51 591.81Q37 592.4 37 593.29L37 597L35.96 597L35.96 590.5L37 590.5L37 591.58L37.03 591.58Q37.76 590.35 39.16 590.35Q40.23 590.35 40.79 591.04Q41.36 591.73 41.36 593.03L41.36 597ZM50.05 596.77L50.05 595.65Q50.9 596.28 51.92 596.28Q53.29 596.28 53.29 595.36Q53.29 595.1 53.17 594.92Q53.06 594.74 52.86 594.6Q52.66 594.46 52.39 594.35Q52.12 594.24 51.81 594.12Q51.38 593.95 51.05 593.78Q50.72 593.6 50.5 593.38Q50.29 593.16 50.17 592.88Q50.06 592.6 50.06 592.23Q50.06 591.77 50.27 591.42Q50.48 591.06 50.83 590.83Q51.18 590.59 51.63 590.47Q52.08 590.35 52.55 590.35Q53.4 590.35 54.06 590.64L54.06 591.69Q53.35 591.22 52.41 591.22Q52.12 591.22 51.89 591.29Q51.65 591.36 51.48 591.48Q51.31 591.6 51.22 591.77Q51.13 591.93 51.13 592.14Q51.13 592.39 51.22 592.56Q51.31 592.73 51.49 592.87Q51.67 593 51.92 593.11Q52.18 593.22 52.5 593.34Q52.93 593.51 53.28 593.69Q53.62 593.86 53.86 594.08Q54.1 594.3 54.23 594.58Q54.36 594.87 54.36 595.26Q54.36 595.74 54.15 596.1Q53.94 596.45 53.58 596.69Q53.22 596.92 52.76 597.04Q52.3 597.15 51.79 597.15Q50.79 597.15 50.05 596.77ZM62.63 597L61.36 597L59.83 594.45Q59.62 594.09 59.43 593.85Q59.23 593.59 59.02 593.43Q58.82 593.27 58.58 593.2Q58.34 593.13 58.04 593.13L57.17 593.13L57.17 597L56.1 597L56.1 587.9L58.82 587.9Q59.41 587.9 59.91 588.05Q60.42 588.2 60.79 588.5Q61.17 588.81 61.37 589.26Q61.58 589.71 61.58 590.32Q61.58 590.8 61.44 591.2Q61.3 591.59 61.03 591.9Q60.77 592.21 60.4 592.44Q60.03 592.65 59.57 592.77L59.57 592.8Q59.79 592.9 59.96 593.03Q60.13 593.16 60.28 593.34Q60.44 593.52 60.58 593.74Q60.73 593.97 60.92 594.26L62.63 597ZM57.17 588.86L57.17 592.16L58.61 592.16Q59.01 592.16 59.35 592.04Q59.69 591.92 59.94 591.7Q60.19 591.47 60.33 591.15Q60.47 590.82 60.47 590.41Q60.47 589.68 59.99 589.27Q59.52 588.86 58.63 588.86L57.17 588.86ZM70.5 596.38Q69.13 597.15 67.45 597.15Q65.5 597.15 64.3 595.9Q63.1 594.64 63.1 592.57Q63.1 590.46 64.43 589.1Q65.77 587.75 67.82 587.75Q69.3 587.75 70.31 588.23L70.31 589.41Q69.21 588.71 67.7 588.71Q66.17 588.71 65.19 589.76Q64.21 590.82 64.21 592.49Q64.21 594.22 65.12 595.21Q66.03 596.19 67.58 596.19Q68.65 596.19 69.43 595.77L69.43 593.22L67.44 593.22L67.44 592.25L70.5 592.25L70.5 596.38ZM72.62 597L72.62 587.9L75.21 587.9Q76.39 587.9 77.08 588.48Q77.77 589.05 77.77 589.98Q77.77 590.75 77.35 591.33Q76.93 591.9 76.2 592.14L76.2 592.16Q77.12 592.27 77.67 592.86Q78.22 593.45 78.22 594.38Q78.22 595.55 77.38 596.28Q76.54 597 75.27 597L72.62 597ZM73.68 588.86L73.68 591.8L74.77 591.8Q75.65 591.8 76.15 591.38Q76.65 590.96 76.65 590.19Q76.65 588.86 74.91 588.86L73.68 588.86ZM73.68 592.76L73.68 596.04L75.13 596.04Q76.07 596.04 76.58 595.59Q77.1 595.15 77.1 594.37Q77.1 592.76 74.91 592.76L73.68 592.76Z" fill="rgb(0,0,0)"/>
<rect x="180" y="624" width="110" height="46" fill="rgb(110,254,254)"/>
<rect x="296" y="624" width="110" height="46" fill="rgb(0,209,209)"/>
<rect x="412" y="624" width="110" height="46" fill="rgb(0,154,154)"/>
<rect x="528" y="624" width="110" height="46" fill="rgb(0,101,101)"/>
<rect x="644" y="624" width="110" height="46" fill="rgb(0,54,54)"/>
<path d="M21.48 650.7Q20.74 651.15 19.71 651.15Q18.32 651.15 17.46 650.25Q16.61 649.34 16.61 647.9Q16.61 646.3 17.53 645.33Q18.45 644.35 19.99 644.35Q20.84 644.35 21.5 644.67L21.5 645.73Q20.77 645.22 19.95 645.22Q18.95 645.22 18.31 645.94Q17.68 646.65 17.68 647.81Q17.68 648.96 18.27 649.62Q18.88 650.28 19.88 650.28Q20.74 650.28 21.48 649.71L21.48 650.7ZM28.23 644.5L25.24 652.04Q24.44 654.06 22.99 654.06Q22.58 654.06 22.31 653.98L22.31 653.04Q22.65 653.16 22.93 653.16Q23.71 653.16 24.11 652.22L24.63 650.99L22.09 644.5L23.24 644.5L25 649.5Q25.03 649.6 25.14 650L25.17 650Q25.21 649.84 25.3 649.51L27.15 644.5L28.23 644.5ZM34 651L32.96 651L32.96 649.98L32.94 649.98Q32.26 651.15 30.94 651.15Q29.97 651.15 29.41 650.64Q28.87 650.12 28.87 649.27Q28.87 647.45 31.01 647.15L32.96 646.88Q32.96 645.22 31.62 645.22Q30.45 645.22 29.5 646.02L29.5 644.96Q30.46 644.35 31.71 644.35Q34 644.35 34 646.77L34 651ZM32.96 647.71L31.39 647.93Q30.67 648.03 30.3 648.29Q29.93 648.54 29.93 649.2Q29.93 649.67 30.27 649.98Q30.61 650.28 31.18 650.28Q31.95 650.28 32.45 649.74Q32.96 649.19 32.96 648.36L32.96 647.71ZM41.36 651L40.31 651L40.31 647.29Q40.31 645.22 38.8 645.22Q38.02 645.22 37.51 645.81Q37 646.4 37 647.29L37 651L35.96 651L35.96 644.5L37 644.5L37 645.58L37.03 645.58Q37.76 644.35 39.16 644.35Q40.23 644.35 40.79 645.04Q41.36 645.73 41.36 647.03L41.36 651ZM54.25 651.15Q52.32 651.15 51.15 649.88Q49.99 648.6 49.99 646.56Q49.99 644.36 51.17 643.05Q52.36 641.75 54.41 641.75Q56.29 641.75 57.44 643.01Q58.59 644.28 58.59 646.33Q58.59 648.56 57.41 649.86Q56.23 651.15 54.25 651.15ZM54.33 642.71Q52.89 642.71 52 643.74Q51.1 644.78 51.1 646.46Q51.1 648.14 51.97 649.17Q52.85 650.19 54.25 650.19Q55.75 650.19 56.61 649.22Q57.48 648.24 57.48 646.48Q57.48 644.68 56.64 643.69Q55.8 642.71 54.33 642.71ZM66.72 651L65.23 651L61.71 646.84Q61.52 646.6 61.47 646.52L61.45 646.52L61.45 651L60.38 651L60.38 641.9L61.45 641.9L61.45 646.18L61.47 646.18Q61.56 646.04 61.71 645.86L65.12 641.9L66.44 641.9L62.54 646.26L66.72 651ZM72.65 651L67.93 651L67.93 641.9L68.99 641.9L68.99 650.04L72.65 650.04L72.65 651ZM79.81 650.62Q78.8 651.15 77.3 651.15Q75.35 651.15 74.19 649.9Q73.02 648.65 73.02 646.62Q73.02 644.44 74.33 643.09Q75.65 641.75 77.67 641.75Q78.96 641.75 79.81 642.12L79.81 643.26Q78.83 642.71 77.65 642.71Q76.08 642.71 75.11 643.76Q74.14 644.8 74.14 646.56Q74.14 648.22 75.04 649.21Q75.96 650.19 77.44 650.19Q78.81 650.19 79.81 649.58L79.81 650.62ZM88.5 651L87.44 651L87.44 646.85L82.73 646.85L82.73 651L81.66 651L81.66 641.9L82.73 641.9L82.73 645.89L87.44 645.89L87.44 641.9L88.5 641.9L88.5 651Z" fill="rgb(0,0,0)"/>
<rect x="180" y="678" width="110" height="46" fill="rgb(255,250,224)"/>
<rect x="296" y="678" width="110" height="46" fill="rgb(255,240,163)"/>
<rect x="412" y="678" width="110" height="46" fill="rgb(255,215,0)"/>
<rect x="528" y="678" width="110" height="46" fill="rgb(51,43,0)"/>
<rect x="644" y="678" width="110" height="46" fill="rgb(12,10,0)"/>
<path d="M22.6 704.48Q22.6 708.06 19.17 708.06Q17.97 708.06 17.07 707.6L17.07 706.56Q18.16 707.17 19.16 707.17Q21.56 707.17 21.56 704.62L21.56 703.91L21.54 703.91Q20.79 705.15 19.3 705.15Q18.09 705.15 17.35 704.29Q16.61 703.42 16.61 701.96Q16.61 700.3 17.4 699.33Q18.2 698.35 19.59 698.35Q20.9 698.35 21.54 699.4L21.56 699.4L21.56 698.5L22.6 698.5L22.6 704.48ZM21.56 702.06L21.56 701.1Q21.56 700.33 21.03 699.78Q20.51 699.22 19.73 699.22Q18.77 699.22 18.22 699.93Q17.68 700.63 17.68 701.89Q17.68 702.98 18.2 703.63Q18.72 704.28 19.59 704.28Q20.46 704.28 21.01 703.65Q21.56 703.03 21.56 702.06ZM27.43 705.15Q25.99 705.15 25.12 704.24Q24.27 703.33 24.27 701.83Q24.27 700.19 25.16 699.27Q26.06 698.35 27.58 698.35Q29.03 698.35 29.85 699.24Q30.66 700.14 30.66 701.72Q30.66 703.28 29.78 704.22Q28.91 705.15 27.43 705.15ZM27.5 699.22Q26.5 699.22 25.92 699.91Q25.33 700.59 25.33 701.79Q25.33 702.94 25.92 703.61Q26.51 704.28 27.5 704.28Q28.51 704.28 29.05 703.62Q29.6 702.97 29.6 701.76Q29.6 700.54 29.05 699.88Q28.51 699.22 27.5 699.22ZM33.38 705L32.33 705L32.33 695.38L33.38 695.38L33.38 705ZM41.04 705L40 705L40 703.9L39.97 703.9Q39.25 705.15 37.74 705.15Q36.51 705.15 35.78 704.28Q35.05 703.41 35.05 701.9Q35.05 700.29 35.86 699.32Q36.67 698.35 38.02 698.35Q39.36 698.35 39.97 699.4L40 699.4L40 695.38L41.04 695.38L41.04 705ZM40 702.06L40 701.1Q40 700.32 39.48 699.77Q38.96 699.22 38.16 699.22Q37.21 699.22 36.66 699.92Q36.11 700.62 36.11 701.85Q36.11 702.98 36.63 703.63Q37.16 704.28 38.04 704.28Q38.91 704.28 39.45 703.65Q40 703.02 40 702.06ZM49.88 704.77L49.88 703.65Q50.73 704.28 51.75 704.28Q53.12 704.28 53.12 703.36Q53.12 703.1 53 702.92Q52.89 702.74 52.68 702.6Q52.49 702.46 52.21 702.35Q51.95 702.24 51.64 702.12Q51.21 701.95 50.88 701.78Q50.55 701.6 50.33 701.38Q50.11 701.16 50 700.88Q49.89 700.6 49.89 700.23Q49.89 699.77 50.1 699.42Q50.31 699.06 50.66 698.83Q51.01 698.59 51.45 698.47Q51.9 698.35 52.38 698.35Q53.22 698.35 53.89 698.64L53.89 699.69Q53.17 699.22 52.24 699.22Q51.95 699.22 51.71 699.29Q51.48 699.36 51.31 699.48Q51.14 699.6 51.05 699.77Q50.96 699.93 50.96 700.14Q50.96 700.39 51.05 700.56Q51.14 700.73 51.32 700.87Q51.5 701 51.75 701.11Q52.01 701.22 52.33 701.34Q52.76 701.51 53.1 701.69Q53.45 701.86 53.69 702.08Q53.93 702.3 54.06 702.58Q54.19 702.87 54.19 703.26Q54.19 703.74 53.97 704.1Q53.76 704.45 53.41 704.69Q53.05 704.92 52.59 705.04Q52.13 705.15 51.62 705.15Q50.62 705.15 49.88 704.77ZM62.45 705L61.18 705L59.66 702.45Q59.45 702.09 59.25 701.85Q59.06 701.59 58.85 701.43Q58.64 701.27 58.4 701.2Q58.17 701.13 57.87 701.13L56.99 701.13L56.99 705L55.93 705L55.93 695.9L58.64 695.9Q59.24 695.9 59.74 696.05Q60.25 696.2 60.62 696.5Q60.99 696.81 61.2 697.26Q61.41 697.71 61.41 698.32Q61.41 698.8 61.27 699.2Q61.13 699.59 60.86 699.9Q60.6 700.21 60.23 700.44Q59.86 700.65 59.39 700.77L59.39 700.8Q59.62 700.9 59.79 701.03Q59.96 701.16 60.11 701.34Q60.26 701.52 60.41 701.74Q60.56 701.97 60.75 702.26L62.45 705ZM56.99 696.86L56.99 700.16L58.44 700.16Q58.84 700.16 59.18 700.04Q59.52 699.92 59.77 699.7Q60.02 699.47 60.16 699.15Q60.29 698.82 60.29 698.41Q60.29 697.68 59.82 697.27Q59.35 696.86 58.45 696.86L56.99 696.86ZM70.33 704.38Q68.96 705.15 67.28 705.15Q65.33 705.15 64.12 703.9Q62.92 702.64 62.92 700.57Q62.92 698.46 64.26 697.1Q65.6 695.75 67.65 695.75Q69.13 695.75 70.14 696.23L70.14 697.41Q69.04 696.71 67.53 696.71Q66 696.71 65.02 697.76Q64.04 698.82 64.04 700.49Q64.04 702.22 64.95 703.21Q65.86 704.19 67.41 704.19Q68.48 704.19 69.26 703.77L69.26 701.22L67.27 701.22L67.27 700.25L70.33 700.25L70.33 704.38ZM72.44 705L72.44 695.9L75.03 695.9Q76.21 695.9 76.91 696.48Q77.6 697.05 77.6 697.98Q77.6 698.75 77.18 699.33Q76.76 699.9 76.02 700.14L76.02 700.16Q76.94 700.27 77.5 700.86Q78.05 701.45 78.05 702.38Q78.05 703.55 77.21 704.28Q76.37 705 75.1 705L72.44 705ZM73.51 696.86L73.51 699.8L74.6 699.8Q75.48 699.8 75.98 699.38Q76.48 698.96 76.48 698.19Q76.48 696.86 74.73 696.86L73.51 696.86ZM73.51 700.76L73.51 704.04L74.96 704.04Q75.9 704.04 76.41 703.59Q76.93 703.15 76.93 702.37Q76.93 700.76 74.73 700.76L73.51 700.76Z" fill="rgb(0,0,0)"/>
<rect x="180" y="732" width="110" height="46" fill="rgb(255,228,122)"/>
<rect x="296" y="732" width="110" height="46" fill="rgb(215,181,0)"/>
<rect x="412" y="732" width="110" height="46" fill="rgb(158,132,0)"/>
<rect x="528" y="732" width="110" height="46" fill="rgb(104,87,0)"/>
<rect x="644" y="732" width="110" height="46" fill="rgb(55,45,0)"/>
<path d="M22.6 758.48Q22.6 762.06 19.17 762.06Q17.97 762.06 17.07 761.6L17.07 760.56Q18.16 761.17 19.16 761.17Q21.56 761.17 21.56 758.62L21.56 757.91L21.54 757.91Q20.79 759.15 19.3 759.15Q18.09 759.15 17.35 758.29Q16.61 757.42 16.61 755.96Q16.61 754.3 17.4 753.33Q18.2 752.35 19.59 752.35Q20.9 752.35 21.54 753.4L21.56 753.4L21.56 752.5L22.6 752.5L22.6 758.48ZM21.56 756.06L21.56 755.1Q21.56 754.33 21.03 753.78Q20.51 753.22 19.73 753.22Q18.77 753.22 18.22 753.93Q17.68 754.63 17.68 755.89Q17.68 756.98 18.2 757.63Q18.72 758.28 19.59 758.28Q20.46 758.28 21.01 757.65Q21.56 757.03 21.56 756.06ZM27.43 759.15Q25.99 759.15 25.12 758.24Q24.27 757.33 24.27 755.83Q24.27 754.19 25.16 753.27Q26.06 752.35 27.58 752.35Q29.03 752.35 29.85 753.24Q30.66 754.14 30.66 755.72Q30.66 757.28 29.78 758.22Q28.91 759.15 27.43 759.15ZM27.5 753.22Q26.5 753.22 25.92 753.91Q25.33 754.59 25.33 755.79Q25.33 756.94 25.92 757.61Q26.51 758.28 27.5 758.28Q28.51 758.28 29.05 757.62Q29.6 756.97 29.6 755.76Q29.6 754.54 29.05 753.88Q28.51 753.22 27.5 753.22ZM33.38 759L32.33 759L32.33 749.38L33.38 749.38L33.38 759ZM41.04 759L40 759L40 757.9L39.97 757.9Q39.25 759.15 37.74 759.15Q36.51 759.15 35.78 758.28Q35.05 757.41 35.05 755.9Q35.05 754.29 35.86 753.32Q36.67 752.35 38.02 752.35Q39.36 752.35 39.97 753.4L40 753.4L40 749.38L41.04 749.38L41.04 759ZM40 756.06L40 755.1Q40 754.32 39.48 753.77Q38.96 753.22 38.16 753.22Q37.21 753.22 36.66 753.92Q36.11 754.62 36.11 755.85Q36.11 756.98 36.63 757.63Q37.16 758.28 38.04 758.28Q38.91 758.28 39.45 757.65Q40 757.02 40 756.06ZM54.08 759.15Q52.15 759.15 50.98 757.88Q49.82 756.6 49.82 754.56Q49.82 752.36 51 751.05Q52.19 749.75 54.23 749.75Q56.12 749.75 57.27 751.01Q58.42 752.28 58.42 754.33Q58.42 756.56 57.24 757.86Q56.06 759.15 54.08 759.15ZM54.16 750.71Q52.72 750.71 51.83 751.74Q50.93 752.78 50.93 754.46Q50.93 756.14 51.8 757.17Q52.68 758.19 54.08 758.19Q55.58 758.19 56.44 757.22Q57.31 756.24 57.31 754.48Q57.31 752.68 56.47 751.69Q55.63 750.71 54.16 750.71ZM66.54 759L65.06 759L61.54 754.84Q61.35 754.6 61.3 754.52L61.28 754.52L61.28 759L60.21 759L60.21 749.9L61.28 749.9L61.28 754.18L61.3 754.18Q61.39 754.04 61.54 753.86L64.94 749.9L66.27 749.9L62.37 754.26L66.54 759ZM72.48 759L67.76 759L67.76 749.9L68.82 749.9L68.82 758.04L72.48 758.04L72.48 759ZM79.64 758.62Q78.63 759.15 77.13 759.15Q75.18 759.15 74.01 757.9Q72.85 756.65 72.85 754.62Q72.85 752.44 74.16 751.09Q75.47 749.75 77.49 749.75Q78.79 749.75 79.64 750.12L79.64 751.26Q78.66 750.71 77.48 750.71Q75.91 750.71 74.94 751.76Q73.96 752.8 73.96 754.56Q73.96 756.22 74.87 757.21Q75.79 758.19 77.26 758.19Q78.64 758.19 79.64 757.58L79.64 758.62ZM88.33 759L87.27 759L87.27 754.85L82.56 754.85L82.56 759L81.49 759L81.49 749.9L82.56 749.9L82.56 753.89L87.27 753.89L87.27 749.9L88.33 749.9L88.33 759Z" fill="rgb(0,0,0)"/>
</svg>
