<?xml version="1.0" encoding="UTF-8" standalone="no"?>
<!DOCTYPE svg PUBLIC "-//W3C//DTD SVG 1.1//EN"
 "http://www.w3.org/Graphics/SVG/1.1/DTD/svg11.dtd">
<!-- Generated by graphviz version 14.0.0 (20250921.2048)
 -->
<!-- Title: densitytest Pages: 1 -->
<svg width="89pt" height="188pt"
 viewBox="0.00 0.00 89.00 188.00" xmlns="http://www.w3.org/2000/svg" xmlns:xlink="http://www.w3.org/1999/xlink">
<g id="graph0" class="graph" transform="scale(1 1) rotate(0) translate(4 184)">
<title>densitytest</title>
<polygon fill="white" stroke="none" points="-4,4 -4,-184 85,-184 85,4 -4,4"/>
<!-- n1 -->
<g id="node1" class="node">
<title>n1</title>
<polygon fill="none" stroke="black" points="81,-180 27,-180 27,-144 81,-144 81,-180"/>
<text xml:space="preserve" text-anchor="middle" x="54" y="-156.95" font-family="Times New Roman,serif" font-size="14.00">n1</text>
</g>
<!-- n2 -->
<g id="node2" class="node">
<title>n2</title>
<polygon fill="none" stroke="black" points="54,-108 0,-108 0,-72 54,-72 54,-108"/>
<text xml:space="preserve" text-anchor="middle" x="27" y="-84.95" font-family="Times New Roman,serif" font-size="14.00">n2</text>
</g>
<!-- n1&#45;&gt;n2 -->
<g id="edge1" class="edge">
<title>n1&#45;&gt;n2</title>
<path fill="none" stroke="black" d="M47.33,-143.7C44.42,-136.15 40.93,-127.12 37.68,-118.68"/>
<polygon fill="black" stroke="black" points="41.01,-117.59 34.14,-109.52 34.48,-120.11 41.01,-117.59"/>
</g>
<!-- n3 -->
<g id="node3" class="node">
<title>n3</title>
<polygon fill="none" stroke="black" points="81,-36 27,-36 27,0 81,0 81,-36"/>
<text xml:space="preserve" text-anchor="middle" x="54" y="-12.95" font-family="Times New Roman,serif" font-size="14.00">n3</text>
</g>
<!-- n2&#45;&gt;n3 -->
<g id="edge2" class="edge">
<title>n2&#45;&gt;n3</title>
<path fill="none" stroke="black" d="M33.67,-71.7C36.58,-64.15 40.07,-55.12 43.32,-46.68"/>
<polygon fill="black" stroke="black" points="46.52,-48.11 46.86,-37.52 39.99,-45.59 46.52,-48.11"/>
</g>
<!-- n3&#45;&gt;n1 -->
<g id="edge3" class="edge">
<title>n3&#45;&gt;n1</title>
<path fill="none" stroke="black" d="M57.65,-36.09C59.68,-46.43 61.98,-59.91 63,-72 64.34,-87.94 64.34,-92.06 63,-108 62.32,-116.03 61.08,-124.67 59.73,-132.6"/>
<polygon fill="black" stroke="black" points="56.29,-131.95 57.93,-142.42 63.17,-133.21 56.29,-131.95"/>
</g>
</g>
</svg>
