<?xml version="1.0" encoding="UTF-8" standalone="no"?>
<!DOCTYPE svg PUBLIC "-//W3C//DTD SVG 1.1//EN"
 "http://www.w3.org/Graphics/SVG/1.1/DTD/svg11.dtd">
<!-- Generated by graphviz version 14.0.0 (20250921.2048)
 -->
<!-- Title: themetest Pages: 1 -->
<svg width="320pt" height="90pt"
 viewBox="0.00 0.00 320.00 90.00" xmlns="http://www.w3.org/2000/svg" xmlns:xlink="http://www.w3.org/1999/xlink">
<g id="graph0" class="graph" transform="scale(1 1) rotate(0) translate(4 85.78)">
<title>themetest</title>
<g id="a_graph0"><a xlink:title=" ">
<polygon fill="white" stroke="none" points="-4,4 -4,-85.78 316.2,-85.78 316.2,4 -4,4"/>
</a>
</g>
<!-- x -->
<g id="node1" class="node">
<title>x</title>
<g id="a_node1"><a xlink:title=" ">
<ellipse fill="#4d654d" stroke="black" cx="281.99" cy="-40.89" rx="30.21" ry="18"/>
<text xml:space="preserve" text-anchor="middle" x="281.99" y="-36.61" font-family="Helvetica,sans-Serif" font-size="12.00" fill="white">Alpha</text>
</a>
</g>
</g>
<!-- y -->
<g id="node2" class="node">
<title>y</title>
<g id="a_node2"><a xlink:title=" ">
<path fill="#4d4dc9" stroke="black" d="M181.78,-58.89C181.78,-58.89 151.78,-58.89 151.78,-58.89 145.78,-58.89 139.78,-52.89 139.78,-46.89 139.78,-46.89 139.78,-34.89 139.78,-34.89 139.78,-28.89 145.78,-22.89 151.78,-22.89 151.78,-22.89 181.78,-22.89 181.78,-22.89 187.78,-22.89 193.78,-28.89 193.78,-34.89 193.78,-34.89 193.78,-46.89 193.78,-46.89 193.78,-52.89 187.78,-58.89 181.78,-58.89"/>
<text xml:space="preserve" text-anchor="middle" x="166.78" y="-36.61" font-family="Helvetica,sans-Serif" font-size="12.00" fill="white">Beta</text>
</a>
</g>
</g>
<!-- x&#45;&gt;y -->
<g id="edge1" class="edge">
<title>x&#45;&gt;y</title>
<path fill="none" stroke="#000000" d="M251.54,-40.89C237.48,-40.89 220.49,-40.89 205.49,-40.89"/>
<polygon fill="#000000" stroke="#000000" points="205.51,-37.39 195.51,-40.89 205.51,-44.39 205.51,-37.39"/>
</g>
<!-- z -->
<g id="node3" class="node">
<title>z</title>
<g id="a_node3"><a xlink:title=" ">
<ellipse fill="#4d4dc9" stroke="black" cx="40.89" cy="-40.89" rx="36.89" ry="36.89"/>
<ellipse fill="none" stroke="black" cx="40.89" cy="-40.89" rx="40.89" ry="40.89"/>
<text xml:space="preserve" text-anchor="middle" x="40.89" y="-36.61" font-family="Helvetica,sans-Serif" font-size="12.00" fill="white">Gamma</text>
</a>
</g>
</g>
<!-- y&#45;&gt;z -->
<g id="edge2" class="edge">
<title>y&#45;&gt;z</title>
<path fill="none" stroke="#000000" d="M139.5,-40.89C126.13,-40.89 109.39,-40.89 93.57,-40.89"/>
<polygon fill="#000000" stroke="#000000" points="93.79,-37.39 83.79,-40.89 93.79,-44.39 93.79,-37.39"/>
</g>
</g>
</svg>
